<?xml version="1.0" encoding="UTF-8" standalone="no"?>
<svg
   xmlns:dc="http://purl.org/dc/elements/1.1/"
   xmlns:cc="http://creativecommons.org/ns#"
   xmlns:rdf="http://www.w3.org/1999/02/22-rdf-syntax-ns#"
   xmlns:svg="http://www.w3.org/2000/svg"
   xmlns="http://www.w3.org/2000/svg"
   version="1.1"
   id="svg14866"
   viewBox="0 0 1078.0835 800.89202"
   height="800.89203"
   width="1078.0835">
  <defs
     id="defs14868" />
  <metadata
     id="metadata14871">
    <rdf:RDF>
      <cc:Work
         rdf:about="">
        <dc:format>image/svg+xml</dc:format>
        <dc:type
           rdf:resource="http://purl.org/dc/dcmitype/StillImage" />
        <dc:title></dc:title>
      </cc:Work>
    </rdf:RDF>
  </metadata>
  <g
     transform="translate(9.9464882,-194.36509)"
     id="layer1">
    <path
       id="path15425"
       d="m 122.98197,991.56443 c -10.5396,-7.42074 -13.25116,-14.44135 -13.13972,-34.01907 0.0543,-9.43024 6.78221,-26.12687 7.44982,-29.60117 l 1.21385,-6.31691 21.64728,3.68302 c 24.96358,4.24725 30.73971,-11.14551 65.46209,-37.1625 40.98592,-30.71063 53.79431,-27.47257 76.09174,-17.3139 4.06542,1.85212 10.94878,6.74465 15.29632,10.87212 6.93049,6.57969 8.05023,8.70343 9.08464,17.23017 1.64036,13.52252 -1.77424,26.84975 -8.98581,35.07111 -7.78896,8.87977 -18.55128,14.58086 -43.66594,23.13125 -11.56542,3.93742 -31.67348,11.65 -44.68458,17.13885 -35.39369,14.931 -49.99153,19.50246 -65.71262,20.57886 -12.69392,0.86902 -14.58925,0.55787 -20.05707,-3.29183 z M 21.754933,948.4732 C 5.5356583,946.08288 -4.4759652,936.97011 -8.7308132,920.72483 c -3.9955028,-15.25587 2.1898948,-35.01804 13.6876748,-43.73122 7.0142524,-5.31559 20.8873234,-12.39973 42.5798464,-21.7428 10.119743,-4.35866 22.502978,-10.72268 27.518165,-14.14229 5.015187,-3.41961 23.045371,-11.65194 23.561609,-10.79176 0.516238,0.86036 2.883208,-9.33793 -2.161985,14.52759 -6.979246,33.01429 -0.274858,56.9516 10.648683,62.59061 l 6.06729,3.13228 -3.34896,3.03559 C 88.796451,932.66052 46.995762,952.19313 21.754933,948.4732 Z M 129.89652,902.04393 c -13.56799,-6.9809 -20.78516,-32.34689 -14.78937,-51.98002 10.96437,-35.90313 68.38774,-103.60431 104.15853,-122.80139 8.25736,-4.4314 31.80298,-4.59383 39.65695,-0.27343 16.52313,9.08913 22.5028,30.79149 14.53072,52.73715 -5.62184,15.47588 -14.5309,27.67671 -43.81559,60.00484 -49.8361,55.01538 -78.77997,73.09798 -99.74124,62.31285 z m 228.24182,-21.46052 c -4.92021,-1.11917 -4.91022,-1.33557 0.50344,-10.8501 2.90047,-5.09738 10.40135,-12.4591 21.57582,-21.17499 26.30607,-20.51876 38.35111,-36.19696 49.51454,-64.45068 23.62535,-59.79331 23.16221,-142.63846 -1.21997,-218.2105 -26.07494,-80.81833 -74.62237,-138.12097 -133.01986,-157.00925 -20.16343,-6.52157 -61.374,-6.88019 -77.0851,-0.67067 -3.32734,1.315 -3.60683,-5.92291 -0.51151,-13.24295 6.57354,-15.54536 16.16899,-24.9812 37.29288,-36.67235 5.78271,-3.2005 16.03387,-9.28224 22.78037,-13.51475 6.74649,-4.23252 15.02628,-8.2772 18.39953,-8.98813 6.39936,-1.34867 106.34299,-24.74186 142.81542,-33.42787 11.56542,-2.75436 31.2792,-7.43428 43.80841,-10.39985 83.06319,-19.66049 117.37096,-29.10793 188.37616,-51.87379 93.72967,-30.05189 146.33954,-42.89961 186.07639,-45.44127 53.43908,-3.41806 102.18722,23.31578 140.65537,77.13644 4.15437,5.81233 8.04007,10.06649 8.63507,9.45372 0.595,-0.61278 1.0818,0.17236 1.0818,1.74476 0,1.57243 3.6641,9.2204 8.1424,16.9955 16.5046,28.65428 33.3964,73.04356 41.9185,110.15575 8.797,38.30897 10.1781,51.38786 10.2534,97.09772 0.064,38.62517 -0.3635,45.35972 -3.9435,62.18868 -9.8594,46.34715 -30.589,80.56836 -60.7517,100.29118 -5.7827,3.78112 -10.77849,7.55647 -11.10176,8.3894 -0.32327,0.83293 -1.28579,1.07008 -2.13895,0.52701 -0.85316,-0.54308 -3.94788,0.28913 -6.87713,1.84923 -5.42331,2.88863 -26.70372,10.15018 -27.46066,9.3705 -0.22873,-0.23553 2.2928,-7.85553 5.60336,-16.93328 20.92882,-57.38802 27.48009,-131.38156 15.70334,-177.3625 -1.33108,-5.19701 -2.7916,-9.83182 -3.24558,-10.29927 -2.18491,-2.25044 -88.62811,23.22564 -200.03867,58.95425 -49.15304,15.76303 -98.4375,31.47263 -109.52103,34.91029 l -20.15187,6.25031 0.87617,14.1746 c 2.12997,34.45782 0.90964,95.19163 -2.29731,114.34269 -11.72488,70.01695 -41.73032,112.94521 -89.44679,127.97006 -6.60718,2.08043 -12.72827,3.78257 -13.60268,3.78257 -0.87442,0 1.10046,-5.50239 4.38872,-12.22737 13.40923,-27.42494 22.10292,-72.55906 22.10292,-114.74932 0,-20.1401 -4.26939,-60.88794 -8.69632,-82.99802 -5.00835,-25.01495 -18.2257,-64.12599 -22.6153,-66.92022 -0.78224,-0.49778 -0.23989,6.98126 1.20508,16.61996 3.5045,23.37743 3.8625,99.68133 0.57337,122.20543 -5.14504,35.23246 -13.92687,65.22874 -26.94778,92.04636 -19.49229,40.14593 -46.70362,64.50464 -87.04416,77.91904 -8.02325,2.6679 -56.22529,4.93874 -64.56483,3.04168 z m -39.92576,-27.01939 c 23.37459,-25.06098 41.18499,-64.13844 49.26238,-108.08625 3.76087,-20.46154 4.24819,-71.12566 0.89404,-92.94877 -10.48282,-68.20653 -35.28785,-124.86828 -72.28808,-165.12755 -23.70736,-25.79536 -47.29048,-41.34596 -74.84386,-49.35165 -19.16811,-5.56916 -19.18108,-6.41057 -0.14545,-9.45785 20.43277,-3.27071 44.86069,-0.68584 66.55462,7.04263 24.4733,8.71841 43.47126,21.84314 64.79824,44.76593 31.97839,34.37137 53.34918,78.16631 66.06641,135.38936 4.44673,20.00926 4.75584,24.15062 4.76093,63.81159 0,40.52368 -0.20976,43.25782 -4.82717,61.36424 -8.94112,35.06172 -20.95776,59.07589 -40.27938,80.49454 -17.23142,19.1016 -40.84713,33.92251 -63.15998,39.63822 -4.80684,1.23144 -4.67103,0.91198 3.2073,-7.53444 z M 299.1058,816.31737 c 0.67168,-2.23348 3.16385,-8.04106 5.53826,-12.90562 13.83838,-28.35118 21.74492,-83.56131 18.08902,-126.31052 -7.64246,-89.36041 -45.32541,-159.24092 -100.39608,-186.17729 -13.79737,-6.74862 -34.59445,-11.65867 -49.38207,-11.65867 -12.25707,0 -34.70152,6.06441 -44.6597,12.0671 -25.69258,15.48671 -41.49725,41.75782 -50.286794,83.58892 -4.852395,23.09317 -4.430607,77.99232 0.825175,107.38742 6.729147,37.6354 18.196086,71.39909 32.476399,95.62533 4.39837,7.46171 7.58832,13.56691 7.08873,13.56691 -0.49942,0 -3.94644,-1.59655 -7.65999,-3.54775 -20.651985,-10.85155 -44.736973,-61.33464 -54.707066,-114.66865 -3.832535,-20.50089 -2.904848,-75.36737 1.63458,-96.67917 13.136915,-61.67647 43.577976,-100.82505 87.518166,-112.5523 30.1004,-8.03348 75.96764,0.19402 102.32698,18.35495 44.58996,30.72146 81.45316,93.20776 96.28773,163.21587 4.69924,22.17704 6.36905,65.35779 3.45088,89.23642 -2.39877,19.62915 -8.66303,43.89456 -14.23598,55.14569 -4.88096,9.85419 -16.66174,22.70747 -24.66869,26.91472 -8.69036,4.56622 -10.75356,4.43158 -9.23955,-0.60336 z m 330.20659,-2.16868 c 0,-0.44814 2.87944,-7.55466 6.39884,-15.79227 19.88621,-46.54568 31.13901,-92.50821 33.27178,-135.90085 0.94276,-19.1821 -0.92698,-47.23097 -3.9927,-59.89619 -0.82622,-3.41329 0.0718,-4.21789 6.65415,-5.95738 28.83592,-7.62126 72.46349,-20.47075 114.50204,-33.72398 145.39997,-45.83909 166.11814,-51.99807 169.8942,-50.50566 2.94943,1.16556 4.03193,24.06471 2.95682,62.54893 -1.60153,57.32828 -17.03164,101.23096 -43.64463,124.17992 -17.80511,15.35387 -38.06492,24.58847 -102.92134,46.91224 -95.85824,32.99464 -150.1493,53.10659 -169.82821,62.91224 -12.64346,6.29994 -13.29095,6.55442 -13.29095,5.223 z M 285.85446,719.29672 C 269.16924,701.6841 257.3839,695.38669 240.6193,695.12517 c -6.44369,-0.10107 -14.96285,0.47972 -18.93172,1.28937 -9.17611,1.87179 -9.61402,0.88834 -10.7448,-24.13221 -1.05578,-23.36317 2.68125,-40.69171 14.11472,-65.45182 9.29737,-20.13396 28.14918,-46.67165 32.05724,-45.12708 1.46513,0.57917 6.57126,6.02345 11.34691,12.09869 23.7955,30.27025 36.87003,80.69523 34.32634,132.3872 -0.60491,12.29108 -1.7052,23.38988 -2.44539,24.66391 -0.94661,1.62958 -5.24264,-1.79707 -14.48814,-11.55651 z"
       style="fill:#000000;fill-opacity:1" />
  </g>
</svg>
